<svg width="32" height="32" viewBox="0 0 80 80" fill="none" xmlns="http://www.w3.org/2000/svg">
  <defs>
    <linearGradient id="faviconGrad" x1="0%" y1="0%" x2="100%" y2="100%">
      <stop offset="0%" stop-color="#ff6b35" />
      <stop offset="30%" stop-color="#f7931e" />
      <stop offset="70%" stop-color="#ff4757" />
      <stop offset="100%" stop-color="#c44569" />
    </linearGradient>
    <radialGradient id="faviconPlate" cx="50%" cy="40%" r="60%">
      <stop offset="0%" stop-color="#ffffff" />
      <stop offset="100%" stop-color="#f8f9fa" />
    </radialGradient>
  </defs>
  
  <circle cx="40" cy="40" r="35" fill="url(#faviconGrad)" />
  <circle cx="40" cy="40" r="26" fill="url(#faviconPlate)" stroke="rgba(255,255,255,0.8)" stroke-width="1" />
  
  <g transform="translate(40, 40)">
    <g transform="translate(-12, 0)">
      <path d="M0 -8 L0 8" stroke="url(#faviconGrad)" stroke-width="2.2" stroke-linecap="round" />
      <path d="M-2 -6 L2 -6 M-1.5 -4 L1.5 -4 M-1 -2 L1 -2" stroke="url(#faviconGrad)" stroke-width="1.8" stroke-linecap="round" />
    </g>
    <g transform="translate(12, 0)">
      <path d="M0 -8 L0 2" stroke="url(#faviconGrad)" stroke-width="2.2" stroke-linecap="round" />
      <ellipse cx="0" cy="5" rx="3" ry="4" fill="#ffeaa7" stroke="url(#faviconGrad)" stroke-width="1.5" />
    </g>
    <path d="M-4 -2 C-4 -5 -1 -5 0 -3 C1 -5 4 -5 4 -2 C4 1 0 5 0 5 C0 5 -4 1 -4 -2 Z" fill="#ff6b35" stroke="white" stroke-width="1.2" />
  </g>
</svg>